<?xml version="1.0" encoding="UTF-8" standalone="no"?>
<!-- Created with Inkscape (http://www.inkscape.org/) -->

<svg
   version="1.1"
   id="svg2"
   width="53.333332"
   height="53.333332"
   viewBox="0 0 53.333332 53.333332"
   sodipodi:docname="Power-iso.ai"
   xmlns:inkscape="http://www.inkscape.org/namespaces/inkscape"
   xmlns:sodipodi="http://sodipodi.sourceforge.net/DTD/sodipodi-0.dtd"
   xmlns="http://www.w3.org/2000/svg"
   xmlns:svg="http://www.w3.org/2000/svg">
  <defs
     id="defs6">
    <linearGradient
       x1="0"
       y1="0"
       x2="1"
       y2="0"
       gradientUnits="userSpaceOnUse"
       gradientTransform="matrix(29.343542,0,0,-29.343542,5.328229,19.171429)"
       spreadMethod="pad"
       id="linearGradient28">
      <stop
         style="stop-opacity:1;stop-color:#363ba7"
         offset="0"
         id="stop22" />
      <stop
         style="stop-opacity:1;stop-color:#e12b9f"
         offset="0.52809"
         id="stop24" />
      <stop
         style="stop-opacity:1;stop-color:#fccc00"
         offset="1"
         id="stop26" />
    </linearGradient>
    <linearGradient
       x1="0"
       y1="0"
       x2="1"
       y2="0"
       gradientUnits="userSpaceOnUse"
       gradientTransform="matrix(10.201917,0,0,-10.201917,19.07049,35.824005)"
       spreadMethod="pad"
       id="linearGradient50">
      <stop
         style="stop-opacity:1;stop-color:#363ba7"
         offset="0"
         id="stop44" />
      <stop
         style="stop-opacity:1;stop-color:#e12b9f"
         offset="0.52809"
         id="stop46" />
      <stop
         style="stop-opacity:1;stop-color:#fccc00"
         offset="1"
         id="stop48" />
    </linearGradient>
  </defs>
  <sodipodi:namedview
     id="namedview4"
     pagecolor="#ffffff"
     bordercolor="#000000"
     borderopacity="0.25"
     inkscape:showpageshadow="2"
     inkscape:pageopacity="0.0"
     inkscape:pagecheckerboard="0"
     inkscape:deskcolor="#d1d1d1" />
  <g
     id="g8"
     inkscape:groupmode="layer"
     inkscape:label="Power-iso"
     transform="matrix(1.3333333,0,0,-1.3333333,0,53.333333)">
    <g
       id="g10">
      <g
         id="g12">
        <g
           id="g18">
          <g
             id="g20">
            <path
               d="m 13.658,36.428 c -1.473,-0.349 -2.114,-1.314 -2.521,-2.45 v 0 c -0.549,0.691 -1.206,0.787 -1.945,0.425 v 0 C 8.385,34.009 7.823,33.231 7.59,32.364 v 0 C 7.124,30.636 7.666,28.608 8.758,26.418 v 0 c 0.28,-1.137 -1.19,-2.625 -1.715,-2.992 v 0 l 1.802,0.595 C 8.81,22.656 7.403,21.41 5.328,20.958 v 0 c 3.363,-1.697 6.719,-0.91 6.44,4.481 v 0 c 1.664,-0.916 2.463,-1.59 2.092,-4.232 v 0 L 12.83,21.689 12.73,1.85 h 7.822 c -0.973,2.062 -2.099,4.584 -2.275,7.28 v 0 c -0.05,2.108 0.25,4.367 1.26,6.929 v 0 c 2.248,-0.439 4.353,-0.609 6.929,-0.404 v 0 c 2.444,0.11 4.792,0.157 6.5,1.672 v 0 c 1.365,1.162 1.797,4.172 1.69,6.991 v 0 c 0.011,2.1 -0.418,4.24 -0.91,5.04 v 0 c 0.081,0.976 -0.019,1.859 -0.42,2.589 v 0 c -0.775,1.088 -1.497,1.62 -2.17,1.61 v 0 c -1.726,0.141 -2.892,-1.539 -2.309,-3.429 v 0 c 0.418,-0.909 1.109,-1.368 2.309,-0.98 v 0 c 0.159,-2.952 -0.002,-5.686 -0.91,-7.91 v 0 c -2.17,1.026 -4.789,1.401 -7.855,1.121 v 0 c -1.4,-0.168 -2.887,-0.497 -4.534,-1.121 v 0 c -0.455,1.058 -0.522,2.307 -0.28,3.71 v 0 l 1.449,-0.149 c 0.326,-0.035 0.624,0.189 0.676,0.513 v 0 c 0.382,2.359 0.71,4.942 0.395,6.216 v 0 c -0.833,3.041 -2.778,4.965 -5.537,4.965 v 0 c -0.292,0 -0.593,-0.022 -0.902,-0.065"
               style="fill:url(#linearGradient28);stroke:none"
               id="path30" />
          </g>
        </g>
      </g>
    </g>
    <g
       id="g32">
      <g
         id="g34">
        <g
           id="g40">
          <g
             id="g42">
            <path
               d="m 19.187,36.997 c -0.264,-0.893 -0.113,-1.5 0.81,-1.574 v 0 c 2.804,0.41 5.432,0.22 7.485,-1.925 v 0 c 1.269,0.225 1.972,0.794 1.75,1.925 v 0 c -1.676,1.867 -3.556,2.727 -5.61,2.727 v 0 c -1.401,0 -2.882,-0.399 -4.435,-1.153"
               style="fill:url(#linearGradient50);stroke:none"
               id="path52" />
          </g>
        </g>
      </g>
    </g>
  </g>
</svg>
